<svg xmlns="http://www.w3.org/2000/svg" width="1600" height="900" viewBox="0 0 1600 900"><rect width="1600" height="900" fill="#F5F7FA"/><rect width="1600" height="96" fill="#163E63"/><text x="34" y="62" font-family="Noto Sans JP, sans-serif" font-size="34" font-weight="700" fill="#fff">9/21（月） ホテル周辺 → 永康街 → 青島 → 赤峰街 → 寧夏 → 雙城街</text><rect x="36" y="122" width="1528" height="48" rx="12" fill="#D9EAF7"/><text x="64" y="154" font-family="Noto Sans JP, sans-serif" font-size="24" font-weight="700" fill="#1F2937">時間</text><text x="284" y="154" font-family="Noto Sans JP, sans-serif" font-size="24" font-weight="700" fill="#1F2937">工程・訪問先</text><rect x="36" y="170" width="1528" height="82" fill="#FFF2CC" stroke="#D7DEE8" stroke-width="2"/><line x1="256" y1="170" x2="256" y2="252" stroke="#D7DEE8" stroke-width="2"/><text x="54" y="204" font-family="Noto Sans JP, sans-serif" font-size="22" fill="#1F2937">05:30–08:00</text><text x="280" y="199" font-family="Noto Sans JP, sans-serif" font-size="21" fill="#1F2937">ホテル・晴光市場・雙城街周辺｜市場散策＋おにぎり購入</text><rect x="36" y="252" width="1528" height="82" fill="#E2F0D9" stroke="#D7DEE8" stroke-width="2"/><line x1="256" y1="252" x2="256" y2="334" stroke="#D7DEE8" stroke-width="2"/><text x="54" y="286" font-family="Noto Sans JP, sans-serif" font-size="22" fill="#1F2937">08:00–11:30</text><text x="280" y="281" font-family="Noto Sans JP, sans-serif" font-size="21" fill="#1F2937">★ 甜滿｜Yongkang Beef Noodles／好公道金雞園／済南鮮湯包／巧之味水餃／Yi</text><text x="280" y="311" font-family="Noto Sans JP, sans-serif" font-size="21" fill="#1F2937"> Ping Fresh Shrimp</text><rect x="36" y="334" width="1528" height="82" fill="#E2F0D9" stroke="#D7DEE8" stroke-width="2"/><line x1="256" y1="334" x2="256" y2="416" stroke="#D7DEE8" stroke-width="2"/><text x="54" y="368" font-family="Noto Sans JP, sans-serif" font-size="22" fill="#1F2937">11:30–13:30</text><text x="280" y="363" font-family="Noto Sans JP, sans-serif" font-size="21" fill="#1F2937">★ 雙月食品社 青島店｜青島飯糰／巧之味手工水餃</text><rect x="36" y="416" width="1528" height="82" fill="#E2F0D9" stroke="#D7DEE8" stroke-width="2"/><line x1="256" y1="416" x2="256" y2="498" stroke="#D7DEE8" stroke-width="2"/><text x="54" y="450" font-family="Noto Sans JP, sans-serif" font-size="22" fill="#1F2937">13:30–17:00</text><text x="280" y="445" font-family="Noto Sans JP, sans-serif" font-size="21" fill="#1F2937">★ COOKIE886｜面線町／プライムショップ＆カフェ／無印良品／赤峰街の雑貨・カフェ</text><rect x="36" y="498" width="1528" height="82" fill="#E2F0D9" stroke="#D7DEE8" stroke-width="2"/><line x1="256" y1="498" x2="256" y2="580" stroke="#D7DEE8" stroke-width="2"/><text x="54" y="532" font-family="Noto Sans JP, sans-serif" font-size="22" fill="#1F2937">17:00–20:30</text><text x="280" y="527" font-family="Noto Sans JP, sans-serif" font-size="21" fill="#1F2937">★ 方家雞肉飯 ＋ ★ 豆花荘 ＋ 寧夏夜市の屋台</text><rect x="36" y="580" width="1528" height="82" fill="#FFF2CC" stroke="#D7DEE8" stroke-width="2"/><line x1="256" y1="580" x2="256" y2="662" stroke="#D7DEE8" stroke-width="2"/><text x="54" y="614" font-family="Noto Sans JP, sans-serif" font-size="22" fill="#1F2937">20:30–23:30</text><text x="280" y="609" font-family="Noto Sans JP, sans-serif" font-size="21" fill="#1F2937">雙城街夜市・ホテル周辺｜鮮定味生猛活海鮮／撞記／徳恵鵝肉／Huang Ji Braised Po</text><text x="280" y="639" font-family="Noto Sans JP, sans-serif" font-size="21" fill="#1F2937">rk</text><rect x="36" y="662" width="1528" height="82" fill="#FFF2CC" stroke="#D7DEE8" stroke-width="2"/><line x1="256" y1="662" x2="256" y2="744" stroke="#D7DEE8" stroke-width="2"/><text x="54" y="696" font-family="Noto Sans JP, sans-serif" font-size="22" fill="#1F2937">23:30〜</text><text x="280" y="691" font-family="Noto Sans JP, sans-serif" font-size="21" fill="#1F2937">三葉足体養生館 ※行ければ</text><text x="36" y="875" font-family="Noto Sans JP, sans-serif" font-size="17" fill="#5B6573">緑＝マスト　黄＝候補　青＝移動　紫＝観光　灰＝休憩　赤＝時間固定・注意</text></svg>